<mxfile host="app.diagrams.net" modified="2024-04-05T01:51:07.912Z" agent="Mozilla/5.0 (X11; Linux x86_64) AppleWebKit/537.36 (KHTML, like Gecko) Chrome/122.0.0.0 Safari/537.36" version="24.2.2" etag="O-4-WH7zXqTKfRj0bd-X" type="github">
  <diagram name="Page-1" id="BKaXyFMTA44PYNPQgZ7k">
    <mxGraphModel>
      <root>
        <mxCell id="0" />
        <mxCell id="1" parent="0" />
      </root>
    </mxGraphModel>
  </diagram>
</mxfile>
